# xmcd
#
# Track frame offsets: 
#        150
#        17957
#        33665
#        50185
#        65840
#        82390
#        102255
#        117500
#        137115
#        156102
#        172612
#
# Disc length: 2513 seconds
#
# Revision: 2
# Processed by: cddbd v1.5.1PL0 Copyright (c) Steve Scherf et al.
# Submitted via: ExactAudioCopy v0.90b4
#
DISCID=a009cf0b
DTITLE=Jennifer Day - The Fun Of Your Love
DYEAR=2000
DGENRE=Country
TTITLE0=The Fun Of Your Love
TTITLE1=Yeah Right
TTITLE2=Tell Me I'm The One
TTITLE3=Someday
TTITLE4=Somebody Else's Guy
TTITLE5=What If It's Me
TTITLE6=Gone By Dawn
TTITLE7=I Turn To You
TTITLE8=Disappear
TTITLE9=Fearless
TTITLE10=Completely
EXTD=
EXTT0=
EXTT1=
EXTT2=
EXTT3=
EXTT4=
EXTT5=
EXTT6=
EXTT7=
EXTT8=
EXTT9=
EXTT10=
PLAYORDER=
